<?xml version="1.0" encoding="UTF-8"?>
<!DOCTYPE svg PUBLIC "-//W3C//DTD SVG 1.1//EN" "http://www.w3.org/Graphics/SVG/1.1/DTD/svg11.dtd">
<svg xmlns="http://www.w3.org/2000/svg" version="1.1" width="835px" height="835px" style="shape-rendering:geometricPrecision; text-rendering:geometricPrecision; image-rendering:optimizeQuality; fill-rule:evenodd; clip-rule:evenodd" xmlns:xlink="http://www.w3.org/1999/xlink">
<g><path style="opacity:1" fill="#fe3d00" d="M 399.5,-0.5 C 411.167,-0.5 422.833,-0.5 434.5,-0.5C 536.531,5.2024 625.198,42.2024 700.5,110.5C 701.614,111.723 701.781,113.056 701,114.5C 661.884,153.243 622.718,192.243 583.5,231.5C 505.734,166.694 419.067,151.528 323.5,186C 259.589,213.744 213.923,259.577 186.5,323.5C 182.738,321.587 179.071,319.421 175.5,317C 136.833,288.333 98.1667,259.667 59.5,231C 55.598,228.249 51.598,225.749 47.5,223.5C 102.06,122.103 184.06,53.6026 293.5,18C 328.188,7.50028 363.522,1.33362 399.5,-0.5 Z"/></g>
<g><path style="opacity:0.999" fill="#fec006" d="M 47.5,223.5 C 51.598,225.749 55.598,228.249 59.5,231C 98.1667,259.667 136.833,288.333 175.5,317C 179.071,319.421 182.738,321.587 186.5,323.5C 163.363,382.324 162.03,441.657 182.5,501.5C 137.185,536.476 91.852,571.476 46.5,606.5C 48.7854,610.735 50.7854,615.069 52.5,619.5C 44.0557,606.28 36.889,592.28 31,577.5C 12.5527,530.785 2.05269,482.452 -0.5,432.5C -0.5,422.167 -0.5,411.833 -0.5,401.5C 2.00099,351.836 12.501,303.836 31,257.5C 36.2102,246.042 41.7102,234.709 47.5,223.5 Z"/></g>
<g><path style="opacity:0.999" fill="#1a75d1" d="M 793.5,334.5 C 804.401,335.187 815.401,335.854 826.5,336.5C 830.284,354.011 832.95,371.677 834.5,389.5C 834.5,408.167 834.5,426.833 834.5,445.5C 826.937,544.709 789.77,630.709 723,703.5C 715.572,711.433 707.739,718.766 699.5,725.5C 698.127,725.657 696.793,725.49 695.5,725C 652.667,688.998 610,652.831 567.5,616.5C 605.465,586.234 633.465,548.567 651.5,503.5C 652.404,502.791 652.737,501.791 652.5,500.5C 573.833,500.5 495.167,500.5 416.5,500.5C 416.5,444.833 416.5,389.167 416.5,333.5C 542.334,333.167 668.001,333.5 793.5,334.5 Z"/></g>
<g><path style="opacity:0.094" fill="#4886a5" d="M 793.5,334.5 C 804.884,333.856 815.884,334.523 826.5,336.5C 815.401,335.854 804.401,335.187 793.5,334.5 Z"/></g>
<g><path style="opacity:0.352" fill="#749875" d="M 416.5,500.5 C 495.167,500.5 573.833,500.5 652.5,500.5C 652.737,501.791 652.404,502.791 651.5,503.5C 573.339,501.834 495.005,500.834 416.5,500.5 Z"/></g>
<g><path style="opacity:1" fill="#4cae4f" d="M 182.5,501.5 C 216.256,586.73 277.922,640.23 367.5,662C 440.9,675.293 507.567,660.126 567.5,616.5C 610,652.831 652.667,688.998 695.5,725C 696.793,725.49 698.127,725.657 699.5,725.5C 699.158,726.338 698.492,726.672 697.5,726.5C 694.911,727.419 692.911,729.086 691.5,731.5C 687.88,733.453 684.88,736.119 682.5,739.5C 678.637,740.694 675.637,743.027 673.5,746.5C 672.738,748.262 671.404,749.262 669.5,749.5C 666.883,750.786 664.55,752.453 662.5,754.5C 657.531,757.478 652.865,760.811 648.5,764.5C 646.147,765.34 644.147,766.674 642.5,768.5C 639.69,771.296 636.357,773.296 632.5,774.5C 630.973,774.427 629.973,775.094 629.5,776.5C 624.976,778.043 620.976,780.377 617.5,783.5C 615.03,783.654 613.03,784.654 611.5,786.5C 609.847,786.66 608.514,787.326 607.5,788.5C 605.664,790.588 603.331,791.921 600.5,792.5C 597.079,792.518 594.412,793.851 592.5,796.5C 589.445,798.41 586.111,799.743 582.5,800.5C 580.62,800.229 579.287,800.896 578.5,802.5C 535.926,820.321 491.592,830.987 445.5,834.5C 426.5,834.5 407.5,834.5 388.5,834.5C 304.596,827.931 229.263,799.431 162.5,749C 154.425,742.628 146.758,735.795 139.5,728.5C 138.415,726.413 136.749,725.08 134.5,724.5C 130.785,721.452 127.452,718.119 124.5,714.5C 123.167,712.5 121.5,710.833 119.5,709.5C 117.548,708.215 115.882,706.549 114.5,704.5C 111.906,700.728 109.073,697.061 106,693.5C 104.223,691.21 102.056,689.543 99.5,688.5C 99.1667,687.833 98.8333,687.167 98.5,686.5C 97.9202,684.251 96.5869,682.585 94.5,681.5C 94.1667,679.167 92.8333,677.833 90.5,677.5C 89.075,676.078 88.075,674.411 87.5,672.5C 86.8763,670.246 85.543,668.579 83.5,667.5C 82.8333,667.5 82.5,667.167 82.5,666.5C 81.5667,663.63 79.9,661.296 77.5,659.5C 76.0256,658.564 75.0256,657.23 74.5,655.5C 74.1551,652.802 72.8218,650.802 70.5,649.5C 68.0002,646.506 66.0002,643.173 64.5,639.5C 61.6076,635.668 59.7743,631.335 59,626.5C 58.6667,626.833 58.3333,627.167 58,627.5C 57.0513,625.907 55.8846,624.574 54.5,623.5C 52.8958,622.713 52.2291,621.38 52.5,619.5C 50.7854,615.069 48.7854,610.735 46.5,606.5C 91.852,571.476 137.185,536.476 182.5,501.5 Z"/></g>
<g><path style="opacity:1" fill="#b0ae2f" d="M 54.5,623.5 C 55.8846,624.574 57.0513,625.907 58,627.5C 58.3333,627.167 58.6667,626.833 59,626.5C 59.7743,631.335 61.6076,635.668 64.5,639.5C 63.6236,639.631 62.9569,639.298 62.5,638.5C 59.8096,633.486 57.143,628.486 54.5,623.5 Z"/></g>
<g><path style="opacity:0.494" fill="#d1aa1f" d="M 70.5,649.5 C 72.8218,650.802 74.1551,652.802 74.5,655.5C 72.6736,653.853 71.3403,651.853 70.5,649.5 Z"/></g>
<g><path style="opacity:0.039" fill="#cea923" d="M 77.5,659.5 C 79.9,661.296 81.5667,663.63 82.5,666.5C 80.1,664.704 78.4333,662.37 77.5,659.5 Z"/></g>
<g><path style="opacity:0.024" fill="#cda924" d="M 83.5,667.5 C 85.543,668.579 86.8763,670.246 87.5,672.5C 85.4689,671.461 84.1355,669.795 83.5,667.5 Z"/></g>
<g><path style="opacity:0.173" fill="#bfa824" d="M 90.5,677.5 C 92.8333,677.833 94.1667,679.167 94.5,681.5C 92.7356,680.674 91.4023,679.341 90.5,677.5 Z"/></g>
<g><path style="opacity:0.039" fill="#c8aa25" d="M 94.5,681.5 C 96.5869,682.585 97.9202,684.251 98.5,686.5C 96.4131,685.415 95.0798,683.749 94.5,681.5 Z"/></g>
<g><path style="opacity:0.455" fill="#c2aa25" d="M 99.5,688.5 C 102.056,689.543 104.223,691.21 106,693.5C 109.073,697.061 111.906,700.728 114.5,704.5C 108.795,699.796 103.795,694.463 99.5,688.5 Z"/></g>
<g><path style="opacity:0.329" fill="#d3a31d" d="M 119.5,709.5 C 121.5,710.833 123.167,712.5 124.5,714.5C 121.833,713.833 120.167,712.167 119.5,709.5 Z"/></g>
<g><path style="opacity:0.031" fill="#c0a92a" d="M 134.5,724.5 C 136.749,725.08 138.415,726.413 139.5,728.5C 137.251,727.92 135.585,726.587 134.5,724.5 Z"/></g>
<g><path style="opacity:0.024" fill="#d5ae1f" d="M 697.5,726.5 C 696.089,728.914 694.089,730.581 691.5,731.5C 692.911,729.086 694.911,727.419 697.5,726.5 Z"/></g>
<g><path style="opacity:0.078" fill="#d9ad1b" d="M 691.5,731.5 C 689.146,734.851 686.146,737.518 682.5,739.5C 684.88,736.119 687.88,733.453 691.5,731.5 Z"/></g>
<g><path style="opacity:0.039" fill="#d9aa1d" d="M 682.5,739.5 C 680.051,742.556 677.051,744.889 673.5,746.5C 675.637,743.027 678.637,740.694 682.5,739.5 Z"/></g>
<g><path style="opacity:0.016" fill="#d8ac1e" d="M 669.5,749.5 C 668.052,752.264 665.719,753.931 662.5,754.5C 664.55,752.453 666.883,750.786 669.5,749.5 Z"/></g>
<g><path style="opacity:0.522" fill="#cead20" d="M 662.5,754.5 C 658.716,758.932 654.05,762.266 648.5,764.5C 652.865,760.811 657.531,757.478 662.5,754.5 Z"/></g>
<g><path style="opacity:0.086" fill="#d5ae1e" d="M 648.5,764.5 C 647.198,766.822 645.198,768.155 642.5,768.5C 644.147,766.674 646.147,765.34 648.5,764.5 Z"/></g>
<g><path style="opacity:0.102" fill="#ddab17" d="M 632.5,774.5 C 632.027,775.906 631.027,776.573 629.5,776.5C 629.973,775.094 630.973,774.427 632.5,774.5 Z"/></g>
<g><path style="opacity:0.063" fill="#cdaa21" d="M 629.5,776.5 C 626.024,779.623 622.024,781.957 617.5,783.5C 620.976,780.377 624.976,778.043 629.5,776.5 Z"/></g>
<g><path style="opacity:0.102" fill="#dba917" d="M 617.5,783.5 C 615.97,785.346 613.97,786.346 611.5,786.5C 613.03,784.654 615.03,783.654 617.5,783.5 Z"/></g>
<g><path style="opacity:0.149" fill="#cba71c" d="M 611.5,786.5 C 610.713,788.104 609.38,788.771 607.5,788.5C 608.514,787.326 609.847,786.66 611.5,786.5 Z"/></g>
<g><path style="opacity:0.016" fill="#dea61a" d="M 600.5,792.5 C 597.965,794.017 595.298,795.35 592.5,796.5C 594.412,793.851 597.079,792.518 600.5,792.5 Z"/></g>
<g><path style="opacity:0.078" fill="#dca316" d="M 582.5,800.5 C 581.486,801.674 580.153,802.34 578.5,802.5C 579.287,800.896 580.62,800.229 582.5,800.5 Z"/></g>
</svg>
